<svg viewBox="0 0 872.92 190.02" height="67.04mm" width="307.95mm" xmlns="http://www.w3.org/2000/svg" id="Capa_2"><g id="Capa_1-2"><path fill="#fff" d="m271.53,94.03v29.28h-19.13v-29.52l-32-53.13h20.31l22.08,36.72,22.08-36.72h18.77l-32.12,53.37Z"></path><path fill="#fff" d="m298.57,91.55c0-19.13,14.76-32.71,34.95-32.71s34.83,13.58,34.83,32.71-14.64,32.71-34.83,32.71-34.95-13.58-34.95-32.71Zm51.13,0c0-10.98-6.97-17.59-16.18-17.59s-16.29,6.61-16.29,17.59,7.08,17.59,16.29,17.59,16.18-6.61,16.18-17.59Z"></path><path fill="#fff" d="m374.49,117.41l6.14-13.22c5.67,3.66,14.29,6.14,22.08,6.14,8.5,0,11.69-2.24,11.69-5.79,0-10.39-38.37.24-38.37-25.15,0-12.04,10.86-20.54,29.4-20.54,8.74,0,18.42,2.01,24.44,5.55l-6.14,13.11c-6.26-3.54-12.52-4.72-18.3-4.72-8.26,0-11.81,2.6-11.81,5.9,0,10.86,38.37.35,38.37,25.39,0,11.81-10.98,20.19-29.99,20.19-10.74,0-21.61-2.95-27.51-6.85Z"></path><path fill="#fff" d="m579.71,59.79l-28.69,67.42c-6.14,15.35-14.88,19.95-26.33,19.95-6.49,0-13.58-2.13-17.71-5.79l6.73-13.11c2.83,2.48,6.73,4.01,10.39,4.01,5.08,0,7.91-2.24,10.39-7.91l.24-.59-27.51-64h19.01l17.83,43.1,17.95-43.1h17.71Z"></path><path fill="#fff" d="m580.77,91.55c0-19.13,14.76-32.71,34.95-32.71s34.83,13.58,34.83,32.71-14.64,32.71-34.83,32.71-34.95-13.58-34.95-32.71Zm51.13,0c0-10.98-6.97-17.59-16.18-17.59s-16.29,6.61-16.29,17.59,7.08,17.59,16.29,17.59,16.18-6.61,16.18-17.59Z"></path><path fill="#fff" d="m770.16,86.94v36.37h-18.42v-33.53c0-10.27-4.6-15-12.04-15-8.27,0-14.05,5.31-14.05,16.65v31.88h-18.42v-33.53c0-10.27-4.37-15-12.04-15-8.15,0-13.93,5.31-13.93,16.65v31.88h-18.42v-63.52h17.59v7.32c4.72-5.43,11.81-8.27,19.95-8.27,8.86,0,16.41,3.42,20.9,10.39,5.08-6.49,13.34-10.39,22.91-10.39,15.11,0,25.98,8.74,25.98,28.1Z"></path><path fill="#fff" d="m782.68,91.55c0-19.13,14.76-32.71,34.95-32.71s34.83,13.58,34.83,32.71-14.64,32.71-34.83,32.71-34.95-13.58-34.95-32.71Zm51.13,0c0-10.98-6.97-17.59-16.18-17.59s-16.29,6.61-16.29,17.59,7.08,17.59,16.29,17.59,16.18-6.61,16.18-17.59Z"></path><path fill="#fff" d="m501.86,74.07c-2.85-4.69-6.94-8.49-11.82-11.01-5.1-2.59-10.75-3.91-16.47-3.84-6.1-.11-12.12,1.34-17.51,4.2-5.01,2.7-9.18,6.74-12.04,11.66-2.99,5.13-4.52,10.98-4.43,16.92-.29,12.03,6.39,23.14,17.15,28.51,5.87,2.93,12.38,4.4,18.94,4.26,5.23.09,10.43-.82,15.32-2.67,4.24-1.64,8.03-4.27,11.05-7.67l-9.81-10.64c-4.26,4.14-10.03,6.36-15.97,6.15-3.44.08-6.84-.65-9.94-2.13-2.8-1.38-5.08-3.62-6.5-6.4-.14-.28-.23-.57-.36-.85l46.94-9.15c.11-6.09-1.46-12.08-4.55-17.33Zm-36.71,1.26c2.57-1.41,5.46-2.12,8.39-2.07,2.88-.07,5.72.65,8.23,2.07,2.3,1.35,4.19,3.29,5.5,5.61.56,1.03.98,2.12,1.31,3.23l-31,5.95c.06-3.01.7-5.97,1.96-8.71,1.19-2.57,3.15-4.69,5.61-6.09Z"></path><path fill="#fff" d="m310.68,178.32v7.3h-2.2v-7.3l-8.45-13.82h2.38l7.24,11.85,7.24-11.85h2.23l-8.44,13.82Z"></path><path fill="#fff" d="m322.83,175.06c0-6.15,4.71-10.74,11.1-10.74s11.07,4.55,11.07,10.74-4.74,10.74-11.07,10.74-11.1-4.59-11.1-10.74Zm19.94,0c0-5.04-3.77-8.75-8.84-8.75s-8.9,3.71-8.9,8.75,3.8,8.75,8.9,8.75,8.84-3.71,8.84-8.75Z"></path><path fill="#fff" d="m352.85,176.6v-12.1h2.23v12.01c0,5.01,2.35,7.3,6.45,7.3s6.49-2.29,6.49-7.3v-12.01h2.17v12.1c0,6.06-3.26,9.2-8.66,9.2s-8.69-3.14-8.69-9.2Z"></path><path fill="#fff" d="m394.35,185.62l-4.83-6.79c-.54.06-1.09.09-1.69.09h-5.67v6.7h-2.23v-21.11h7.9c5.37,0,8.63,2.71,8.63,7.24,0,3.32-1.75,5.64-4.83,6.64l5.16,7.24h-2.44Zm-.12-13.87c0-3.38-2.23-5.31-6.45-5.31h-5.61v10.59h5.61c4.22,0,6.45-1.96,6.45-5.28Z"></path><path fill="#fff" d="m413.66,183.05l.87-1.72c1.51,1.48,4.19,2.56,6.97,2.56,3.95,0,5.67-1.66,5.67-3.74,0-5.79-13-2.23-13-10.05,0-3.11,2.41-5.79,7.78-5.79,2.38,0,4.86.69,6.54,1.87l-.75,1.78c-1.81-1.18-3.92-1.75-5.79-1.75-3.86,0-5.58,1.72-5.58,3.83,0,5.79,13,2.29,13,9.98,0,3.11-2.47,5.76-7.87,5.76-3.17,0-6.27-1.12-7.84-2.74Z"></path><path fill="#fff" d="m452.17,183.69v1.93h-14.93v-21.11h14.48v1.93h-12.25v7.51h10.92v1.9h-10.92v7.84h12.7Z"></path><path fill="#fff" d="m475.37,183.69v1.93h-14.93v-21.11h14.48v1.93h-12.25v7.51h10.92v1.9h-10.92v7.84h12.7Z"></path><path fill="#fff" d="m483.63,164.5h8.6c6.76,0,11.31,4.34,11.31,10.56s-4.55,10.56-11.31,10.56h-8.6v-21.11Zm8.48,19.18c5.61,0,9.23-3.56,9.23-8.63s-3.62-8.63-9.23-8.63h-6.24v17.25h6.24Z"></path><path fill="#fff" d="m512.35,184.11c0,.51-.12.9-.42,1.75l-1.27,4.16h-1.45l1.02-4.37c-.63-.18-1.09-.75-1.09-1.54,0-.93.69-1.63,1.6-1.63s1.6.72,1.6,1.63Z"></path><path fill="#fff" d="m538.53,178.32v7.3h-2.2v-7.3l-8.45-13.82h2.38l7.24,11.85,7.24-11.85h2.23l-8.44,13.82Z"></path><path fill="#fff" d="m550.68,175.06c0-6.15,4.71-10.74,11.1-10.74s11.07,4.55,11.07,10.74-4.74,10.74-11.07,10.74-11.1-4.59-11.1-10.74Zm19.94,0c0-5.04-3.77-8.75-8.84-8.75s-8.9,3.71-8.9,8.75,3.8,8.75,8.9,8.75,8.84-3.71,8.84-8.75Z"></path><path fill="#fff" d="m580.69,176.6v-12.1h2.23v12.01c0,5.01,2.35,7.3,6.45,7.3s6.49-2.29,6.49-7.3v-12.01h2.17v12.1c0,6.06-3.26,9.2-8.66,9.2s-8.69-3.14-8.69-9.2Z"></path><path fill="#fff" d="m622.2,185.62l-4.83-6.79c-.54.06-1.09.09-1.69.09h-5.67v6.7h-2.23v-21.11h7.9c5.37,0,8.63,2.71,8.63,7.24,0,3.32-1.75,5.64-4.83,6.64l5.16,7.24h-2.44Zm-.12-13.87c0-3.38-2.23-5.31-6.45-5.31h-5.61v10.59h5.61c4.22,0,6.45-1.96,6.45-5.28Z"></path><path fill="#fff" d="m665.45,164.5v21.11h-2.14v-16.89l-8.3,14.21h-1.06l-8.29-14.12v16.8h-2.14v-21.11h1.84l9.17,15.66,9.08-15.66h1.84Z"></path><path fill="#fff" d="m673.48,175.06c0-6.15,4.71-10.74,11.1-10.74s11.07,4.55,11.07,10.74-4.74,10.74-11.07,10.74-11.1-4.59-11.1-10.74Zm19.94,0c0-5.04-3.77-8.75-8.84-8.75s-8.9,3.71-8.9,8.75,3.8,8.75,8.9,8.75,8.84-3.71,8.84-8.75Z"></path><path fill="#fff" d="m721.31,164.5v21.11h-1.84l-13.57-17.13v17.13h-2.23v-21.11h1.84l13.6,17.13v-17.13h2.2Z"></path><path fill="#fff" d="m746.14,183.69v1.93h-14.93v-21.11h14.48v1.93h-12.25v7.51h10.92v1.9h-10.92v7.84h12.7Z"></path><path fill="#fff" d="m761.37,178.32v7.3h-2.2v-7.3l-8.45-13.82h2.38l7.24,11.85,7.24-11.85h2.23l-8.44,13.82Z"></path><path fill="#fff" d="m60.31,10.4c5.3,2.01,32.22,13.52,41.6,42.4.28.86,1.07,1.4,1.93,1.4.21,0,.42-.03.63-.1,1.06-.35,1.65-1.49,1.3-2.55C95.81,20.91,67.35,8.74,61.75,6.61c-1.04-.4-2.22.13-2.61,1.17-.4,1.05.13,2.22,1.17,2.61Z"></path><path fill="#fff" d="m80.03,4.25c4.7,3.17,28.28,20.53,30.82,50.79.09,1.06.97,1.86,2.02,1.86.06,0,.11,0,.17,0,1.11-.09,1.94-1.07,1.85-2.19C112.19,22.6,87.27,4.25,82.3.89c-.93-.63-2.19-.38-2.81.55-.63.93-.38,2.19.55,2.81Z"></path><path fill="#fff" d="m125.39,70.67c-.46,1.02-.01,2.22,1,2.68.27.12.56.18.84.18.77,0,1.51-.44,1.85-1.19,13.35-29.31.59-57.51-2.11-62.87-.5-1-1.72-1.4-2.72-.9-1,.5-1.4,1.72-.9,2.72,2.55,5.07,14.62,31.74,2.04,59.37Z"></path><path fill="#fff" d="m118.67,60.11c-.18,1.1.57,2.14,1.68,2.32.11.02.22.03.33.03.98,0,1.84-.71,2-1.7,5.15-31.8-14.59-55.64-18.6-60.09-.75-.83-2.03-.9-2.86-.15-.83.75-.9,2.03-.15,2.86,3.79,4.21,22.47,26.76,17.61,56.73Z"></path><path fill="#fff" d="m130.47,78.36c-.68.89-.52,2.16.36,2.84.37.28.8.42,1.24.42.61,0,1.21-.27,1.6-.79,19.69-25.49,13.71-55.86,12.31-61.69-.26-1.09-1.35-1.76-2.44-1.5-1.09.26-1.76,1.35-1.5,2.44,1.32,5.51,6.99,34.23-11.57,58.27Z"></path><path fill="#fff" d="m131.79,88.15c-.88.69-1.04,1.96-.35,2.84.4.51,1,.78,1.6.78.43,0,.87-.14,1.24-.43,25.42-19.79,27.19-50.69,27.28-56.68.02-1.12-.87-2.04-1.99-2.06h-.03c-1.1,0-2.01.89-2.02,1.99-.09,5.67-1.76,34.9-25.72,53.55Z"></path><path fill="#fff" d="m132.73,97.31c-1.02.47-1.46,1.67-.99,2.69.34.74,1.07,1.18,1.84,1.18.28,0,.57-.06.84-.19,29.27-13.45,38.05-43.14,39.51-48.95.27-1.08-.39-2.19-1.47-2.46-1.09-.27-2.19.39-2.46,1.47-1.38,5.5-9.68,33.57-37.27,46.26Z"></path><path fill="#fff" d="m129.32,107.13c-1.1.2-1.83,1.25-1.64,2.35.18.98,1.03,1.67,1.99,1.67.12,0,.24-.01.36-.03,31.71-5.67,47.66-32.2,50.53-37.46.54-.98.18-2.21-.81-2.75-.98-.54-2.21-.18-2.75.81-2.72,4.98-17.8,30.07-47.69,35.41Z"></path><path fill="#fff" d="m183.26,91.94c-.83-.75-2.11-.68-2.86.16-3.78,4.22-24.19,25.19-54.52,23.59-1.13-.08-2.07.8-2.13,1.91-.06,1.12.8,2.07,1.91,2.13,1.2.06,2.38.09,3.54.09,30.2,0,50.36-20.72,54.21-25.02.75-.83.68-2.11-.16-2.86Z"></path><path fill="#fff" d="m177.25,113.07c-4.72,3.15-29.71,18.39-58.68,9.26-1.07-.34-2.21.26-2.54,1.32-.34,1.07.26,2.2,1.32,2.54,6.94,2.18,13.65,3.05,19.96,3.05,21.61,0,38.33-10.24,42.19-12.81.93-.62,1.18-1.88.56-2.81-.62-.93-1.88-1.18-2.81-.56Z"></path><path fill="#fff" d="m170.81,132.7c-5.31,1.99-33.13,11.11-59.24-4.39-.96-.57-2.2-.26-2.78.71-.57.96-.25,2.2.71,2.78,12.18,7.23,24.7,9.41,35.38,9.41,13.6,0,24.21-3.54,27.35-4.72,1.05-.39,1.58-1.56,1.19-2.61-.39-1.05-1.56-1.58-2.61-1.19Z"></path><path fill="#fff" d="m156.68,150.14c-5.62.73-34.79,3.29-56.7-17.73-.81-.77-2.09-.75-2.86.06-.77.81-.75,2.09.06,2.86,17.3,16.6,38.81,19.34,51.13,19.34,4.23,0,7.38-.32,8.9-.52,1.11-.14,1.89-1.16,1.75-2.27-.14-1.11-1.15-1.89-2.27-1.75Z"></path><path fill="#fff" d="m142.2,164.88c-5.64-.58-34.62-4.74-51.15-30.21-.61-.94-1.86-1.21-2.8-.6-.94.61-1.2,1.86-.6,2.8,17.54,27.02,48.17,31.42,54.14,32.03.07,0,.14.01.21.01,1.03,0,1.91-.78,2.01-1.82.11-1.11-.7-2.11-1.81-2.22Z"></path><path fill="#fff" d="m123.39,174.67c-5.32-1.96-32.35-13.21-42.01-42-.36-1.06-1.5-1.63-2.57-1.28-1.06.36-1.63,1.5-1.28,2.57,10.25,30.54,38.83,42.43,44.45,44.51.23.09.47.13.7.13.82,0,1.6-.51,1.9-1.33.39-1.05-.15-2.21-1.2-2.6Z"></path><path fill="#fff" d="m103.73,181.01c-4.73-3.13-28.48-20.25-31.31-50.48-.11-1.11-1.1-1.92-2.21-1.83-1.11.1-1.93,1.09-1.83,2.21,3.01,32.07,28.11,50.18,33.11,53.48.34.23.73.34,1.11.34.66,0,1.3-.32,1.69-.91.62-.93.36-2.19-.57-2.81Z"></path><path fill="#fff" d="m64.28,124.05c.18-1.1-.57-2.14-1.68-2.32-1.11-.18-2.15.57-2.32,1.68-5.14,31.8,14.61,55.63,18.62,60.09.4.44.95.67,1.51.67.48,0,.97-.17,1.35-.52.83-.75.9-2.03.15-2.86-3.79-4.21-22.48-26.75-17.63-56.73Z"></path><path fill="#fff" d="m57.35,117.98c.43-1.03-.07-2.22-1.1-2.64-1.03-.43-2.22.07-2.64,1.1-12.27,29.79,1.52,57.5,4.4,62.75.37.67,1.06,1.05,1.78,1.05.33,0,.66-.08.97-.25.98-.54,1.34-1.77.8-2.75-2.73-4.97-15.77-31.18-4.21-59.26Z"></path><path fill="#fff" d="m53.5,108.89c.67-.9.49-2.16-.41-2.84-.89-.67-2.16-.49-2.84.41-19.3,25.79-12.85,56.06-11.36,61.87.24.91,1.06,1.52,1.96,1.52.17,0,.34-.02.5-.06,1.08-.28,1.74-1.38,1.46-2.47-1.41-5.49-7.51-34.13,10.68-58.44Z"></path><path fill="#fff" d="m50.17,100.29c.86-.72.97-2,.25-2.85-.72-.86-2-.97-2.85-.25-24.68,20.7-25.32,51.65-25.19,57.64.02,1.1.92,1.98,2.02,1.98.01,0,.03,0,.04,0,1.12-.02,2.01-.95,1.98-2.07-.12-5.67.48-34.94,23.75-54.45Z"></path><path fill="#fff" d="m51.22,86.88c1.02-.47,1.46-1.67,1-2.69-.47-1.02-1.67-1.46-2.69-1-29.27,13.44-38.07,43.11-39.54,48.93-.27,1.08.38,2.19,1.47,2.46.17.04.33.06.5.06.91,0,1.73-.61,1.96-1.53,1.39-5.5,9.7-33.57,37.3-46.23Z"></path><path fill="#fff" d="m54.6,77.6c1.1-.2,1.83-1.25,1.63-2.35-.2-1.1-1.25-1.84-2.35-1.63C22.18,79.33,6.27,105.88,3.4,111.15c-.53.98-.17,2.21.81,2.75.31.17.64.25.97.25.72,0,1.41-.38,1.78-1.06,2.71-4.98,17.76-30.09,47.64-35.49Z"></path><path fill="#fff" d="m58.02,69.04c1.13.05,2.07-.8,2.13-1.92.06-1.12-.8-2.07-1.92-2.13C26.06,63.32,4.51,85.54.52,90.01c-.75.83-.67,2.12.16,2.86.39.35.87.52,1.35.52.56,0,1.11-.23,1.51-.68,3.78-4.23,24.19-25.24,54.49-23.67Z"></path><path fill="#fff" d="m5.8,71.5c.39,0,.78-.11,1.12-.34,4.72-3.14,29.73-18.36,58.68-9.23,1.06.33,2.2-.25,2.54-1.32.34-1.07-.25-2.2-1.32-2.54-30.71-9.69-57.16,6.39-62.15,9.72-.93.62-1.18,1.88-.56,2.81.39.59,1.03.9,1.69.9Z"></path><path fill="#fff" d="m13.38,51.53c5.31-1.98,33.14-11.09,59.24,4.42.32.19.68.28,1.03.28.69,0,1.36-.35,1.74-.99.57-.96.25-2.21-.71-2.78-27.69-16.45-57.11-6.83-62.73-4.73-1.05.39-1.58,1.56-1.19,2.61.39,1.05,1.56,1.58,2.61,1.19Z"></path><path fill="#fff" d="m25.9,34.42c5.64-.6,34.85-2.49,56.27,19.04.4.4.92.6,1.44.6s1.03-.2,1.43-.59c.79-.79.8-2.07,0-2.86C62.32,27.77,31.44,29.76,25.48,30.39c-1.11.12-1.92,1.12-1.8,2.23.12,1.11,1.11,1.91,2.23,1.8Z"></path><path fill="#fff" d="m40.72,20.03c5.63.71,34.5,5.54,50.44,31.39.38.62,1.05.96,1.73.96.36,0,.73-.1,1.06-.3.95-.59,1.25-1.83.66-2.79-16.91-27.42-47.43-32.53-53.38-33.28-1.12-.15-2.12.65-2.26,1.76-.14,1.11.65,2.12,1.76,2.26Z"></path><path fill="#fff" d="m872.92,49.85c0,5.37-4.18,9.58-9.56,9.58s-9.5-4.21-9.5-9.53,4.13-9.53,9.56-9.53,9.5,4.1,9.5,9.48Zm-1.84,0c0-4.4-3.21-7.72-7.67-7.72s-7.69,3.4-7.69,7.78,3.24,7.78,7.64,7.78,7.72-3.43,7.72-7.83Zm-4.67,1.78l2.3,3.51h-2.81l-1.97-3.02h-1.86v3.02h-2.81v-10.48h4.56c2.86,0,4.56,1.46,4.56,3.73,0,1.54-.7,2.65-1.97,3.24Zm-2.78-1.62c1.27,0,2-.59,2-1.62s-.73-1.65-2-1.65h-1.59v3.27h1.59Z"></path></g></svg>